<svg width="50" height="50" viewBox="0 0 50 50" fill="none" xmlns="http://www.w3.org/2000/svg">
<circle cx="25" cy="25" r="25" fill="#00388C" fill-opacity="0.1"/>
<g clip-path="url(#clip0_2813_143)">
<path d="M36.25 34.664C36.0221 32.3381 34.9963 30.1596 33.3682 28.4071C33.2542 28.276 33.0425 28.3415 33.01 28.5217L32.9286 29.0459V29.0622V29.095C32.8309 29.4226 32.6518 29.5864 32.375 29.5864C32.1959 29.5864 32.0982 29.7993 32.2122 29.9303C33.6287 31.5519 34.4102 33.5665 34.4102 35.6959C34.4102 36.0726 34.3776 36.4657 34.3288 36.826C34.2962 37.1372 34.0194 37.3665 33.7101 37.3665H15.5562C15.2468 37.3665 14.9701 37.1372 14.9375 36.826C14.8887 36.4493 14.8561 36.0562 14.8561 35.6959C14.8561 31.6502 17.6891 28.145 21.6943 26.9821C21.8734 26.9329 21.906 26.6709 21.7269 26.589C21.2222 26.3596 20.75 26.0812 20.3104 25.7372C20.1639 25.6226 19.9848 25.5898 19.822 25.6717C18.6822 26.1467 17.6565 26.8019 16.7285 27.6045C14.5956 29.4553 13.2605 31.9614 13 34.664V38.7588C13 39.0372 13.2117 39.2502 13.4884 39.2502H33.1239L35.7616 39.2338C36.0383 39.2338 36.25 39.0209 36.25 38.7424V34.664Z" fill="#1E54B0"/>
<path d="M17.2819 17.3672L17.2656 21.8388C17.2656 22.5922 17.9332 23.1983 18.7635 23.1983H20.6685L20.7336 23.2965C21.0918 23.7388 21.5151 24.1319 21.9873 24.4267C22.8176 24.9672 23.7782 25.2621 24.7551 25.2621C25.7483 25.2621 26.7089 24.9672 27.5393 24.4267C28.0114 24.1155 28.4185 23.7388 28.7767 23.2965L28.8581 23.1983H29.8024V25.7043C29.8024 26.0483 29.5256 26.3267 29.1837 26.3267H27.7184C27.7184 26.1957 27.6207 26.0974 27.4904 26.0974H25.5041C25.4389 26.0974 25.3738 26.1629 25.3738 26.2284V27.7517C25.3738 27.8172 25.4389 27.8828 25.5041 27.8828H27.4904C27.6207 27.8828 27.7184 27.7845 27.7184 27.6534H30.9747C31.0398 27.6534 31.1049 27.6043 31.1049 27.5224V23.1819L31.284 23.1328C31.9027 22.9526 32.3097 22.4284 32.3097 21.8388L32.2935 17.3836V17.3672V17.3509C32.3097 17.2034 32.3097 17.0724 32.3097 16.9578C32.3097 16.8431 32.3097 16.7121 32.2935 16.5483L32.2609 16.2207C31.805 13.1086 28.5976 10.75 24.7877 10.75C20.9778 10.75 17.7704 13.1086 17.3145 16.2207L17.2819 16.5319C17.2656 16.7121 17.2656 16.8267 17.2656 16.9414C17.2656 17.0888 17.2656 17.2198 17.2819 17.3672ZM28.2231 21.2819C27.6532 22.7888 26.2856 23.7715 24.7714 23.7715C23.3061 23.7715 21.971 22.8379 21.3686 21.4129C21.1569 20.9052 21.0429 20.3647 21.0429 19.7914C21.0429 19.2345 21.1569 18.6776 21.3686 18.1698C21.971 16.7284 23.3061 15.8112 24.7714 15.8112C26.3019 15.8112 27.6532 16.794 28.2231 18.3009C28.4022 18.7759 28.4999 19.2836 28.4999 19.8078C28.4999 20.2991 28.4022 20.8069 28.2231 21.2819ZM24.7877 11.9621C28.1905 11.9621 30.9421 14.206 30.9421 16.9578C30.9421 17.056 30.9421 17.1379 30.9421 17.2198C30.9421 17.3509 30.8281 17.4328 30.7142 17.4328H29.6884L29.6233 17.2853C28.7767 15.2379 26.8717 13.9276 24.7714 13.9276C22.6711 13.9276 20.7661 15.2543 19.9195 17.2853L19.8544 17.4328H18.8775C18.7472 17.4328 18.6496 17.3345 18.6496 17.2198C18.6496 17.1379 18.6333 17.056 18.6333 16.9578C18.6333 14.206 21.3848 11.9621 24.7877 11.9621Z" fill="#1E54B0"/>
</g>
<defs>
<clipPath id="clip0_2813_143">
<rect width="23.25" height="28.5" fill="white" transform="translate(13 10.75)"/>
</clipPath>
</defs>
</svg>
