<svg width="50" height="50" viewBox="0 0 50 50" fill="none" xmlns="http://www.w3.org/2000/svg">
<circle cx="25" cy="25" r="25" fill="#00388C" fill-opacity="0.1"/>
<g clip-path="url(#clip0_2813_130)">
<path d="M10.7495 15.722V34.9327C10.7495 35.2002 10.9542 35.4047 11.2219 35.4047H38.7771C39.0448 35.4047 39.2495 35.2002 39.2495 34.9327V15.722C39.2495 15.4545 39.0448 15.25 38.7771 15.25H11.2219C10.9542 15.25 10.7495 15.4545 10.7495 15.722ZM24.7633 24.5328L14.9694 17.6887C14.5915 17.4212 14.7805 16.8234 15.2371 16.8234H35.2186C35.691 16.8234 35.8642 17.4212 35.4863 17.6887L25.2987 24.5328C25.1412 24.6429 24.9208 24.6429 24.7633 24.5328ZM12.3241 33.3593V18.6485C12.3241 18.2708 12.7492 18.0506 13.0642 18.2551L24.7318 26.4366C24.8893 26.5467 25.1097 26.5467 25.2672 26.4366L36.9349 18.6012C37.2498 18.3967 37.6749 18.617 37.6749 18.9946V33.3593C37.6749 33.6268 37.4702 33.8313 37.2026 33.8313H12.7965C12.5288 33.8313 12.3241 33.6268 12.3241 33.3593Z" fill="#1E54B0"/>
</g>
<defs>
<clipPath id="clip0_2813_130">
<rect width="28.5" height="20.1547" fill="white" transform="translate(10.7495 15.25)"/>
</clipPath>
</defs>
</svg>
