<svg width="50" height="50" viewBox="0 0 50 50" fill="none" xmlns="http://www.w3.org/2000/svg">
<circle cx="25" cy="25" r="25" fill="#00388C" fill-opacity="0.1"/>
<g clip-path="url(#clip0_2868_217)">
<path d="M32.1739 28.1621C32.1414 28.1134 31.9624 28.0321 31.7998 27.9508C31.7347 27.9183 31.6696 27.8858 31.6046 27.8533C31.2142 27.6582 29.5224 26.8453 29.2296 26.7315C29.1157 26.6989 29.0018 26.6502 28.9368 26.6502C28.9042 26.6502 28.8392 26.6502 28.7253 26.8127C28.4813 27.1704 27.8143 27.9671 27.5866 28.2109C27.4239 28.406 27.2287 28.4873 27.0172 28.4873C26.8708 28.4873 26.7082 28.4385 26.5292 28.3572C26.4804 28.3247 26.3991 28.2922 26.3015 28.2434C25.8135 28.0321 24.7886 27.5931 23.6499 26.5851C22.5763 25.6259 21.8443 24.4391 21.6328 24.1139C21.3237 23.5937 21.6491 23.2685 21.8118 23.0897C21.9094 22.9922 22.0232 22.8458 22.1534 22.6995C22.2184 22.6182 22.2835 22.5532 22.3323 22.4882C22.4624 22.3418 22.5112 22.228 22.6089 22.0492L22.6577 21.9517C22.7227 21.8378 22.7065 21.724 22.6251 21.5615C22.5763 21.4477 22.3323 20.8786 21.9744 20.0007C21.8118 19.5943 21.6491 19.2041 21.5352 18.9602C21.3563 18.5212 21.2099 18.5212 21.1448 18.5212C21.1123 18.5212 21.096 18.5212 21.0635 18.5212C21.0309 18.5212 20.9984 18.5212 20.9659 18.5212C20.852 18.5212 20.7544 18.5212 20.6405 18.505C20.5267 18.505 20.4128 18.4887 20.2989 18.4887C20.1688 18.4887 19.8434 18.5212 19.5344 18.8464C19.5181 18.8627 19.4856 18.8952 19.453 18.9277C19.0952 19.3016 18.3631 20.082 18.3631 21.594C18.3631 23.106 19.4205 24.6342 19.7458 25.0569C19.7621 25.0732 19.7946 25.1219 19.8434 25.187C21.519 27.6419 23.5849 29.4465 25.6671 30.2594C27.3751 30.926 28.4487 31.2349 29.0181 31.2349C29.197 31.2349 29.3272 31.2024 29.4573 31.1699C29.5549 31.1536 29.6525 31.1211 29.7826 31.1048C30.3357 31.056 31.6859 30.3244 31.9462 29.6091C32.2064 28.8938 32.2064 28.2922 32.1739 28.1621ZM32.1739 28.1621C32.1414 28.1134 31.9624 28.0321 31.7998 27.9508C31.7347 27.9183 31.6696 27.8858 31.6046 27.8533C31.2142 27.6582 29.5224 26.8453 29.2296 26.7315C29.1157 26.6989 29.0018 26.6502 28.9368 26.6502C28.9042 26.6502 28.8392 26.6502 28.7253 26.8127C28.4813 27.1704 27.8143 27.9671 27.5866 28.2109C27.4239 28.406 27.2287 28.4873 27.0172 28.4873C26.8708 28.4873 26.7082 28.4385 26.5292 28.3572C26.4804 28.3247 26.3991 28.2922 26.3015 28.2434C25.8135 28.0321 24.7886 27.5931 23.6499 26.5851C22.5763 25.6259 21.8443 24.4391 21.6328 24.1139C21.3237 23.5937 21.6491 23.2685 21.8118 23.0897C21.9094 22.9922 22.0232 22.8458 22.1534 22.6995C22.2184 22.6182 22.2835 22.5532 22.3323 22.4882C22.4624 22.3418 22.5112 22.228 22.6089 22.0492L22.6577 21.9517C22.7227 21.8378 22.7065 21.724 22.6251 21.5615C22.5763 21.4477 22.3323 20.8786 21.9744 20.0007C21.8118 19.5943 21.6491 19.2041 21.5352 18.9602C21.3563 18.5212 21.2099 18.5212 21.1448 18.5212C21.1123 18.5212 21.096 18.5212 21.0635 18.5212C21.0309 18.5212 20.9984 18.5212 20.9659 18.5212C20.852 18.5212 20.7544 18.5212 20.6405 18.505C20.5267 18.505 20.4128 18.4887 20.2989 18.4887C20.1688 18.4887 19.8434 18.5212 19.5344 18.8464C19.5181 18.8627 19.4856 18.8952 19.453 18.9277C19.0952 19.3016 18.3631 20.082 18.3631 21.594C18.3631 23.106 19.4205 24.6342 19.7458 25.0569C19.7621 25.0732 19.7946 25.1219 19.8434 25.187C21.519 27.6419 23.5849 29.4465 25.6671 30.2594C27.3751 30.926 28.4487 31.2349 29.0181 31.2349C29.197 31.2349 29.3272 31.2024 29.4573 31.1699C29.5549 31.1536 29.6525 31.1211 29.7826 31.1048C30.3357 31.056 31.6859 30.3244 31.9462 29.6091C32.2064 28.8938 32.2064 28.2922 32.1739 28.1621ZM32.1739 28.1621C32.1414 28.1134 31.9624 28.0321 31.7998 27.9508C31.7347 27.9183 31.6696 27.8858 31.6046 27.8533C31.2142 27.6582 29.5224 26.8453 29.2296 26.7315C29.1157 26.6989 29.0018 26.6502 28.9368 26.6502C28.9042 26.6502 28.8392 26.6502 28.7253 26.8127C28.4813 27.1704 27.8143 27.9671 27.5866 28.2109C27.4239 28.406 27.2287 28.4873 27.0172 28.4873C26.8708 28.4873 26.7082 28.4385 26.5292 28.3572C26.4804 28.3247 26.3991 28.2922 26.3015 28.2434C25.8135 28.0321 24.7886 27.5931 23.6499 26.5851C22.5763 25.6259 21.8443 24.4391 21.6328 24.1139C21.3237 23.5937 21.6491 23.2685 21.8118 23.0897C21.9094 22.9922 22.0232 22.8458 22.1534 22.6995C22.2184 22.6182 22.2835 22.5532 22.3323 22.4882C22.4624 22.3418 22.5112 22.228 22.6089 22.0492L22.6577 21.9517C22.7227 21.8378 22.7065 21.724 22.6251 21.5615C22.5763 21.4477 22.3323 20.8786 21.9744 20.0007C21.8118 19.5943 21.6491 19.2041 21.5352 18.9602C21.3563 18.5212 21.2099 18.5212 21.1448 18.5212C21.1123 18.5212 21.096 18.5212 21.0635 18.5212C21.0309 18.5212 20.9984 18.5212 20.9659 18.5212C20.852 18.5212 20.7544 18.5212 20.6405 18.505C20.5267 18.505 20.4128 18.4887 20.2989 18.4887C20.1688 18.4887 19.8434 18.5212 19.5344 18.8464C19.5181 18.8627 19.4856 18.8952 19.453 18.9277C19.0952 19.3016 18.3631 20.082 18.3631 21.594C18.3631 23.106 19.4205 24.6342 19.7458 25.0569C19.7621 25.0732 19.7946 25.1219 19.8434 25.187C21.519 27.6419 23.5849 29.4465 25.6671 30.2594C27.3751 30.926 28.4487 31.2349 29.0181 31.2349C29.197 31.2349 29.3272 31.2024 29.4573 31.1699C29.5549 31.1536 29.6525 31.1211 29.7826 31.1048C30.3357 31.056 31.6859 30.3244 31.9462 29.6091C32.2064 28.8938 32.2064 28.2922 32.1739 28.1621ZM32.1739 28.1621C32.1414 28.1134 31.9624 28.0321 31.7998 27.9508C31.7347 27.9183 31.6696 27.8858 31.6046 27.8533C31.2142 27.6582 29.5224 26.8453 29.2296 26.7315C29.1157 26.6989 29.0018 26.6502 28.9368 26.6502C28.9042 26.6502 28.8392 26.6502 28.7253 26.8127C28.4813 27.1704 27.8143 27.9671 27.5866 28.2109C27.4239 28.406 27.2287 28.4873 27.0172 28.4873C26.8708 28.4873 26.7082 28.4385 26.5292 28.3572C26.4804 28.3247 26.3991 28.2922 26.3015 28.2434C25.8135 28.0321 24.7886 27.5931 23.6499 26.5851C22.5763 25.6259 21.8443 24.4391 21.6328 24.1139C21.3237 23.5937 21.6491 23.2685 21.8118 23.0897C21.9094 22.9922 22.0232 22.8458 22.1534 22.6995C22.2184 22.6182 22.2835 22.5532 22.3323 22.4882C22.4624 22.3418 22.5112 22.228 22.6089 22.0492L22.6577 21.9517C22.7227 21.8378 22.7065 21.724 22.6251 21.5615C22.5763 21.4477 22.3323 20.8786 21.9744 20.0007C21.8118 19.5943 21.6491 19.2041 21.5352 18.9602C21.3563 18.5212 21.2099 18.5212 21.1448 18.5212C21.1123 18.5212 21.096 18.5212 21.0635 18.5212C21.0309 18.5212 20.9984 18.5212 20.9659 18.5212C20.852 18.5212 20.7544 18.5212 20.6405 18.505C20.5267 18.505 20.4128 18.4887 20.2989 18.4887C20.1688 18.4887 19.8434 18.5212 19.5344 18.8464C19.5181 18.8627 19.4856 18.8952 19.453 18.9277C19.0952 19.3016 18.3631 20.082 18.3631 21.594C18.3631 23.106 19.4205 24.6342 19.7458 25.0569C19.7621 25.0732 19.7946 25.1219 19.8434 25.187C21.519 27.6419 23.5849 29.4465 25.6671 30.2594C27.3751 30.926 28.4487 31.2349 29.0181 31.2349C29.197 31.2349 29.3272 31.2024 29.4573 31.1699C29.5549 31.1536 29.6525 31.1211 29.7826 31.1048C30.3357 31.056 31.6859 30.3244 31.9462 29.6091C32.2064 28.8938 32.2064 28.2922 32.1739 28.1621ZM25.1303 10.75C17.3383 10.75 10.9941 17.0418 10.9941 24.7643C10.9941 27.3167 11.6936 29.8204 13.0275 31.999L13.0926 32.0965L13.0601 32.2104L10.7827 38.9411C10.7176 39.1362 10.8965 39.315 11.0917 39.25L18.1191 37.0227L18.2167 36.9902L18.3143 37.0389C20.3965 38.177 22.7553 38.7785 25.1465 38.7785C32.9385 38.7785 39.2826 32.4867 39.2826 24.7643C39.2501 17.0418 32.9222 10.75 25.1303 10.75ZM25.1303 36.9902C22.7878 36.9902 20.5104 36.3398 18.5421 35.088C18.477 35.0555 18.4119 35.0392 18.3306 35.0555L13.9059 36.4537C13.7107 36.5187 13.5318 36.3236 13.5969 36.1448L15.0284 31.934C15.0609 31.8527 15.0446 31.7876 14.9958 31.7226C13.5481 29.6741 12.7998 27.268 12.7998 24.7643C12.7998 18.0173 18.3306 12.5384 25.1303 12.5384C28.4162 12.5384 31.507 13.8065 33.8494 16.1151C36.1756 18.4237 37.4607 21.4964 37.4607 24.748C37.4445 31.495 31.9136 36.9902 25.1303 36.9902ZM31.7998 27.9508C31.7347 27.9183 31.6696 27.8858 31.6046 27.8533C31.2142 27.6582 29.5224 26.8453 29.2296 26.7315C29.1157 26.6989 29.0018 26.6502 28.9368 26.6502C28.9042 26.6502 28.8392 26.6502 28.7253 26.8127C28.4813 27.1704 27.8143 27.9671 27.5866 28.2109C27.4239 28.406 27.2287 28.4873 27.0172 28.4873C26.8708 28.4873 26.7082 28.4385 26.5292 28.3572C26.4804 28.3247 26.3991 28.2922 26.3015 28.2434C25.8135 28.0321 24.7886 27.5931 23.6499 26.5851C22.5763 25.6259 21.8443 24.4391 21.6328 24.1139C21.3237 23.5937 21.6491 23.2685 21.8118 23.0897C21.9094 22.9922 22.0232 22.8458 22.1534 22.6995C22.2184 22.6182 22.2835 22.5532 22.3323 22.4882C22.4624 22.3418 22.5112 22.228 22.6089 22.0492L22.6577 21.9517C22.7227 21.8378 22.7065 21.724 22.6251 21.5615C22.5763 21.4477 22.3323 20.8786 21.9744 20.0007C21.8118 19.5943 21.6491 19.2041 21.5352 18.9602C21.3563 18.5212 21.2099 18.5212 21.1448 18.5212C21.1123 18.5212 21.096 18.5212 21.0635 18.5212C21.0309 18.5212 20.9984 18.5212 20.9659 18.5212C20.852 18.5212 20.7544 18.5212 20.6405 18.505C20.5267 18.505 20.4128 18.4887 20.2989 18.4887C20.1688 18.4887 19.8434 18.5212 19.5344 18.8464C19.5181 18.8627 19.4856 18.8952 19.453 18.9277C19.0952 19.3016 18.3631 20.082 18.3631 21.594C18.3631 23.106 19.4205 24.6342 19.7458 25.0569C19.7621 25.0732 19.7946 25.1219 19.8434 25.187C21.519 27.6419 23.5849 29.4465 25.6671 30.2594C27.3751 30.926 28.4487 31.2349 29.0181 31.2349C29.197 31.2349 29.3272 31.2024 29.4573 31.1699C29.5549 31.1536 29.6525 31.1211 29.7826 31.1048C30.3357 31.056 31.6859 30.3244 31.9462 29.6091C32.2064 28.8775 32.2064 28.276 32.1739 28.1459C32.1251 28.1134 31.9624 28.0321 31.7998 27.9508ZM32.1739 28.1621C32.1414 28.1134 31.9624 28.0321 31.7998 27.9508C31.7347 27.9183 31.6696 27.8858 31.6046 27.8533C31.2142 27.6582 29.5224 26.8453 29.2296 26.7315C29.1157 26.6989 29.0018 26.6502 28.9368 26.6502C28.9042 26.6502 28.8392 26.6502 28.7253 26.8127C28.4813 27.1704 27.8143 27.9671 27.5866 28.2109C27.4239 28.406 27.2287 28.4873 27.0172 28.4873C26.8708 28.4873 26.7082 28.4385 26.5292 28.3572C26.4804 28.3247 26.3991 28.2922 26.3015 28.2434C25.8135 28.0321 24.7886 27.5931 23.6499 26.5851C22.5763 25.6259 21.8443 24.4391 21.6328 24.1139C21.3237 23.5937 21.6491 23.2685 21.8118 23.0897C21.9094 22.9922 22.0232 22.8458 22.1534 22.6995C22.2184 22.6182 22.2835 22.5532 22.3323 22.4882C22.4624 22.3418 22.5112 22.228 22.6089 22.0492L22.6577 21.9517C22.7227 21.8378 22.7065 21.724 22.6251 21.5615C22.5763 21.4477 22.3323 20.8786 21.9744 20.0007C21.8118 19.5943 21.6491 19.2041 21.5352 18.9602C21.3563 18.5212 21.2099 18.5212 21.1448 18.5212C21.1123 18.5212 21.096 18.5212 21.0635 18.5212C21.0309 18.5212 20.9984 18.5212 20.9659 18.5212C20.852 18.5212 20.7544 18.5212 20.6405 18.505C20.5267 18.505 20.4128 18.4887 20.2989 18.4887C20.1688 18.4887 19.8434 18.5212 19.5344 18.8464C19.5181 18.8627 19.4856 18.8952 19.453 18.9277C19.0952 19.3016 18.3631 20.082 18.3631 21.594C18.3631 23.106 19.4205 24.6342 19.7458 25.0569C19.7621 25.0732 19.7946 25.1219 19.8434 25.187C21.519 27.6419 23.5849 29.4465 25.6671 30.2594C27.3751 30.926 28.4487 31.2349 29.0181 31.2349C29.197 31.2349 29.3272 31.2024 29.4573 31.1699C29.5549 31.1536 29.6525 31.1211 29.7826 31.1048C30.3357 31.056 31.6859 30.3244 31.9462 29.6091C32.2064 28.8938 32.2064 28.2922 32.1739 28.1621ZM32.1739 28.1621C32.1414 28.1134 31.9624 28.0321 31.7998 27.9508C31.7347 27.9183 31.6696 27.8858 31.6046 27.8533C31.2142 27.6582 29.5224 26.8453 29.2296 26.7315C29.1157 26.6989 29.0018 26.6502 28.9368 26.6502C28.9042 26.6502 28.8392 26.6502 28.7253 26.8127C28.4813 27.1704 27.8143 27.9671 27.5866 28.2109C27.4239 28.406 27.2287 28.4873 27.0172 28.4873C26.8708 28.4873 26.7082 28.4385 26.5292 28.3572C26.4804 28.3247 26.3991 28.2922 26.3015 28.2434C25.8135 28.0321 24.7886 27.5931 23.6499 26.5851C22.5763 25.6259 21.8443 24.4391 21.6328 24.1139C21.3237 23.5937 21.6491 23.2685 21.8118 23.0897C21.9094 22.9922 22.0232 22.8458 22.1534 22.6995C22.2184 22.6182 22.2835 22.5532 22.3323 22.4882C22.4624 22.3418 22.5112 22.228 22.6089 22.0492L22.6577 21.9517C22.7227 21.8378 22.7065 21.724 22.6251 21.5615C22.5763 21.4477 22.3323 20.8786 21.9744 20.0007C21.8118 19.5943 21.6491 19.2041 21.5352 18.9602C21.3563 18.5212 21.2099 18.5212 21.1448 18.5212C21.1123 18.5212 21.096 18.5212 21.0635 18.5212C21.0309 18.5212 20.9984 18.5212 20.9659 18.5212C20.852 18.5212 20.7544 18.5212 20.6405 18.505C20.5267 18.505 20.4128 18.4887 20.2989 18.4887C20.1688 18.4887 19.8434 18.5212 19.5344 18.8464C19.5181 18.8627 19.4856 18.8952 19.453 18.9277C19.0952 19.3016 18.3631 20.082 18.3631 21.594C18.3631 23.106 19.4205 24.6342 19.7458 25.0569C19.7621 25.0732 19.7946 25.1219 19.8434 25.187C21.519 27.6419 23.5849 29.4465 25.6671 30.2594C27.3751 30.926 28.4487 31.2349 29.0181 31.2349C29.197 31.2349 29.3272 31.2024 29.4573 31.1699C29.5549 31.1536 29.6525 31.1211 29.7826 31.1048C30.3357 31.056 31.6859 30.3244 31.9462 29.6091C32.2064 28.8938 32.2064 28.2922 32.1739 28.1621Z" fill="#1E54B0"/>
</g>
<defs>
<clipPath id="clip0_2868_217">
<rect width="28.5" height="28.5" fill="white" transform="translate(10.75 10.75)"/>
</clipPath>
</defs>
</svg>
